<svg xmlns="http://www.w3.org/2000/svg" viewBox="0 0 379.98 428.98"><defs><style>.cls-1{fill:#3dc762;}.cls-2{fill:#665447;}.cls-3{fill:#3dae6e;}</style></defs><title>Asset 2</title><g id="Layer_2" data-name="Layer 2"><g id="OBJECTS"><path class="cls-1" d="M362.05,102.32l-.64,0s0,0,0,0a28.63,28.63,0,0,0-57.25,0v0c-.21,0-.42,0-.64,0a17.93,17.93,0,1,0,0,35.86h58.52a17.93,17.93,0,0,0,0-35.86Z"/><path class="cls-2" d="M327.79,105.94c0,7.15-.16,14.4-2.11,21.33-1.56,5.59-4.08,10.23-9.13,12.67-4.37,2.11-10,2.36-15.14,2.22-5.71-.16-11.37-1-17-1.65-2.68-.33-5,2.53-5,5,0,3,2.31,4.67,5,5,12.45,1.5,26.72,4,38.25-2.48,14.29-8,15.14-27.67,15.16-42.09,0-6.44-10-6.45-10,0Z"/><path class="cls-1" d="M76.45,146.05c-.22,0-.43,0-.64,0v0a28.62,28.62,0,0,0-57.24,0v0c-.21,0-.42,0-.64,0a17.93,17.93,0,0,0,0,35.86H76.45a17.93,17.93,0,0,0,0-35.86Z"/><path class="cls-3" d="M143.37,75.65c-.33,0-.65,0-1,0v0a43.41,43.41,0,0,0-86.82,0v0c-.32,0-.64,0-1,0a27.19,27.19,0,0,0,0,54.38h88.76a27.19,27.19,0,0,0,0-54.38Z"/><path class="cls-2" d="M195.17,45.35a5.18,5.18,0,0,0-10.36,0L167.36,429h45.26Z"/><path class="cls-1" d="M240,28.62c-.22,0-.43,0-.64,0v0a28.62,28.62,0,0,0-57.24,0v0c-.21,0-.42,0-.64,0a17.93,17.93,0,0,0,0,35.86H240a17.93,17.93,0,0,0,0-35.86Z"/><path class="cls-2" d="M193.5,218.59A57.68,57.68,0,0,1,178,215.15a49.5,49.5,0,0,1-6.71-3.07,66.9,66.9,0,0,1-6.94-4.31,59.51,59.51,0,0,1-5.87-4.72q-3.13-2.82-6-5.94a94.16,94.16,0,0,1-10.16-13.25c-13.19-20.39-20.68-44.07-24.66-68a179.16,179.16,0,0,1-2.44-35.91c.26-6.43-9.74-6.42-10,0a180.94,180.94,0,0,0,.86,25.47c-2.84-3.68-4.41-8.43-3.52-12.42C104,86.69,94.33,84,92.91,90.3c-2.57,11.4,4.49,24.41,15.13,29.2a220.56,220.56,0,0,0,8.07,31.79c7.86,23.54,20.1,47.36,40.1,62.83a68.79,68.79,0,0,0,37.29,14.47c2.7.2,5-2.44,5-5A5.09,5.09,0,0,0,193.5,218.59Z"/><path class="cls-2" d="M217.43,49.46c.4,8.89,1.08,17.76.52,26.65a49.39,49.39,0,0,1-2.23,13.16c-.16.51-.33,1-.51,1.52-.1.27-.61,1.56-.24.68a23.84,23.84,0,0,1-1.46,2.9c-.25.43-.51.84-.78,1.25-.15.23-.32.46-.48.68,0,0,.51-.63.15-.2a24.25,24.25,0,0,1-2.11,2.19c-.16.15-.74.59.06,0a6.08,6.08,0,0,1-.66.47c-.46.3-.93.58-1.4.84-.24.14-.5.26-.75.38.41-.2.5-.19,0,0s-1.1.38-1.66.53c-.39.1-1.83.38-1.59.35s-1.19.09-1.51.1a28,28,0,0,1-4.58-.24c-2.69-.33-5,2.54-5,5,0,3,2.31,4.67,5,5,11.07,1.36,20.87-3.89,25.38-14.16,4.33-9.88,4.75-21.11,4.52-31.75-.12-5.11-.47-10.2-.7-15.31-.28-6.4-10.28-6.44-10,0Z"/><path class="cls-2" d="M139,195.3c-12.44,6.53-28.81,7.62-42.78,4.87a66.89,66.89,0,0,1-21.4-7.79,45.59,45.59,0,0,1-15.32-13.87c-4.79-7.27-6.5-14.84-6-23.63.4-6.43-9.6-6.41-10,0a46.93,46.93,0,0,0,0,5.93,12.39,12.39,0,0,1-6.14-11.14c.21-6.44-9.79-6.43-10,0-.36,10.86,7.87,20.59,18.36,22.77,3.54,10.81,11,20.06,20.9,26.66,14.38,9.52,32.77,13.47,49.86,12.25a69.6,69.6,0,0,0,27.51-7.42C149.76,200.94,144.72,192.31,139,195.3Z"/><path class="cls-3" d="M316.83,160.48c-.44,0-.87.06-1.3.07v-.07a58.57,58.57,0,0,0-117.13,0v.07c-.43,0-.86-.07-1.31-.07a36.69,36.69,0,0,0,0,73.38H316.83a36.69,36.69,0,0,0,0-73.38Z"/><path class="cls-2" d="M288.34,181.43c0-6.44-10-6.45-10,0,0,8.62-1.94,19.48-8.95,25.26v-.37c-.18-13-1-26-1.35-38.95-.19-6.42-10.19-6.45-10,0,.68,22.74,2.53,45.55.4,68.28A127,127,0,0,1,256,251.93a102.52,102.52,0,0,1-4.67,15.51c-.22.56-.6,1.47-1.2,2.73s-1.16,2.4-1.79,3.57a62.78,62.78,0,0,1-4,6.49,46.53,46.53,0,0,1-4.37,5.19c-.86.89-1.74,1.75-2.66,2.57-.47.42-.94.83-1.42,1.22l-.72.6-.19.15-.1.08c-10.87,8.16-23.78,11-37.36,11.32-6.43.15-6.45,10.15,0,10,13.34-.31,27-2.91,38.46-10A60.29,60.29,0,0,0,258,276.71c8.92-17.94,11.09-38.5,11.38-58.5C283.33,211.61,288.25,196.17,288.34,181.43Z"/><path class="cls-1" d="M133,241.52c-.22,0-.43,0-.64,0v0a28.62,28.62,0,1,0-57.24,0v0l-.64,0a17.93,17.93,0,0,0,0,35.86H133a17.93,17.93,0,1,0,0-35.86Z"/><path class="cls-2" d="M200.71,325.91a5.1,5.1,0,0,0-6.15-3.49c-17.62,3.3-36,1.15-51.38-7.79A68.68,68.68,0,0,1,113,276.85a88.74,88.74,0,0,1-4.2-31.71c.25-6.44-9.75-6.43-10,0a103.4,103.4,0,0,0,.61,16A6.83,6.83,0,0,1,97.77,260a6.24,6.24,0,0,1-1.87-4.58c-.16-6.42-10.16-6.45-10,0a17,17,0,0,0,14.61,16.53,5.83,5.83,0,0,0,.73.06A82,82,0,0,0,115,302.34a77.14,77.14,0,0,0,46.8,29.86,93.22,93.22,0,0,0,35.43-.14C199.87,331.56,201.38,328.36,200.71,325.91Z"/></g></g></svg>